<svg t="1589044195585" class="icon" viewBox="0 0 1024 1024" version="1.1" xmlns="http://www.w3.org/2000/svg" p-id="3641" width="81" height="81"><path d="M590.589072 990.170267l-1.092961-4.475934-2.966607-58.44737c0 0 1.873647-11.293926 7.962999-19.569199 6.037306-8.43141-2.290013-164.828869-2.290013-164.828869s5.881169-16.186226 10.409149-19.204879c4.580025-3.17479-8.899822-104.091487-6.661855-105.600813 2.290013-1.405235 17.071004-9.628463 25.502414-14.104396 8.327319-4.580025 24.201271-51.056874 24.201271-51.056874s5.204574-6.401626 12.699161-11.710292c7.650724-5.360712 14.520762-21.286709 17.48737-28.833342 3.122745-7.70277-2.966607-16.030089-2.966607-16.030089l11.398018-25.91878L679.847522 463.571436 634.099314 442.284727l-18.996696 28.104701c0 0-17.48737-9.940737-26.647421-20.558069C579.2431 439.161982 581.585159 413.295248 571.644422 396.536518 567.220534 389.041931 557.800254 383.837357 548.692249 380.350292 545.465413 371.034104 540.416976 356.825616 538.959695 350.892402 536.669682 341.784396 537.398323 324.192935 539.740381 318.884269c1.405235-3.487065 0-12.855299-1.092961-18.944651C539.688335 297.545515 540.781296 297.805743 541.197662 295.099365 555.874562 293.485947 584.864041 286.251588 583.719034 285.939314 582.469936 285.627039 554.781601 282.296112 540.469022 281.047014c-0.468412-2.550241 0-1.873647-1.092961-4.059568l38.826125-24.305362-46.320712 12.386887C529.955781 263.143278 530.632376 261.581906 528.186226 259.968488c3.851385-5.25662 21.182618-40.179314 19.413062-38.722033C540.989479 226.607166 517.360712 251.276849 514.029784 254.035273 510.959085 253.046404 507.836341 252.421855 504.505413 252.005489L496.282186 199.074968l-6.245489 52.878475C484.207573 252.630038 484.988259 252.265718 480.095959 254.711868l0 0c0 0-35.026785-33.101093-36.952478-34.610419-1.873647-1.561372 21.182618 40.179314 21.182618 40.179314l-3.435019 5.725032L432.317967 258.511207c-0.468412 2.08183-0.988869 4.267751-1.457281 6.661855l24.357408 10.773469L454.437408 280.474511c0 0-11.970521-0.676595-20.506023 0.104091C434.868208 284.169759 435.961169 287.344549 437.314358 290.415248c6.557764 0.832732 16.810775 2.706379 16.810775 2.706379s0.572503 0.884778 1.405235 2.290013c1.301144 2.08183 3.278882 5.308666 4.632071 7.650724 0.780686 14.937128 4.007522 20.818297 4.007522 20.818297L461.984041 345.89601c0 0-6.349581-1.457281-10.14892-5.360712C447.983736 336.788005 438.095044 325.442033 437.314358 314.876747 436.689809 305.768742 434.503888 294.266633 431.485235 290.415248 430.548412 288.541601 425.916341 274.593342 425.239746 268.347853 424.771334 265.329199 424.45906 262.362592 424.354968 259.656213c0-1.145006-0.052046-2.290013-0.052046-3.382973L424.146785 256.221194C424.09474 254.815959 424.09474 253.46277 424.09474 252.005489 423.262008 228.376722 406.555324 188.769911 406.555324 180.390546c0-8.379365-0.780686-26.595375 0-40.335451 0.676595-13.740076-10.669377-25.91878-10.669377-25.91878s1.457281-3.799339 5.360712-8.327319c1.509327-1.821601 1.925693-4.007522 1.925693-5.98526 9.888691-2.08183 16.550546-5.777078 16.550546-10.096874 0-1.301144-0.72864-2.654333-2.029784-3.799339L417.693113 76.767471C418.994257 75.622465 419.722897 74.269276 419.722897 72.864041c0-5.308666-10.253011-9.628463-24.201271-11.137789-0.208183-2.914562 0-7.494587 2.08183-8.951868C400.674155 50.7446 406.503278 46.424803 406.034867 38.617942 405.462363 30.759034 405.774638 26.126963 407.544193 23.316493c1.71751-2.758424 6.037306-6.765947 6.037306-6.765947L397.343227 23.628767 412.436493 0c0 0-28.416976 8.847776-37.889301 17.227141C367.729199 23.316493 363.409403 30.602897 368.45784 45.904346c2.08183 6.401626 4.52798 12.178704 8.119136 15.665769-14.572808 1.301144-25.398323 5.881169-25.398323 11.241881 0 1.249098 0.676595 2.550241 1.821601 3.643202l0 9.732554C351.855248 87.332757 351.230699 88.581855 351.230699 89.778907c0 3.799339 5.25662 7.078221 13.271665 9.264142-0.468412 6.245489 4.736163 12.022567 4.736163 12.022567 0 0.052046 0 0.052046 0 0.052046C369.082389 111.273799 365.387141 116.634511 364.606455 130.114358 363.877814 143.854435 372.205133 153.847217 372.205133 153.847217s0.780686 4.52798 0.780686 12.907344 7.598679 23.628767 7.598679 23.628767 2.237967 12.855299 0.780686 36.43202c-1.561372 23.628767 10.617332 65.525591 10.617332 65.525591s-9.888691 17.48737-18.21601 37.264752C365.387141 349.383075 390.525235 376.811182 390.525235 376.811182S406.503278 421.83075 407.908513 439.994714c1.561372 18.320102 7.546633 160.457027 3.747294 190.903787-3.851385 30.394714-7.598679 127.460025-6.817992 139.638729 0.676595 12.126658 9.212097 63.33967 5.412757 103.623075-3.799339 40.335451-3.122745 106.901957-3.122745 106.901957l-0.260229 9.160051L334.159695 990.222313l0 33.777687 355.68061 0 0-33.777687L590.589072 990.170267 590.589072 990.170267zM636.233189 450.92432l38.409759 18.268056L666.627903 487.460432c0 0-9.264142-0.988869-14.312579 3.070699C647.318933 494.538653 639.147751 508.695095 639.147751 512.754663c0 4.111614 2.029784 13.219619 2.029784 13.219619L611.77169 577.707751l-6.089352-5.048437L600.685947 501.773011 636.233189 450.92432zM503.672681 314.148107C503.412452 316.125845 502.423583 317.114714 500.133571 317.114714S495.345362 317.947446 495.345362 317.947446l3.17479 4.788208 0 2.706379c0 0-0.676595 0.36432-2.966607 0.36432-2.342058 0-3.070699 1.769555-3.539111 3.070699C491.441931 330.074104 495.033088 329.137281 497.114917 329.137281c1.977738 0 2.81047 2.81047 2.81047 2.81047s0 5.516849 0 7.858907c0 2.237967-1.613418 2.550241-4.319797 2.237967C492.795121 341.836442 484.415756 341.263939 481.55324 336.215502 478.794816 331.062973 478.326404 318.624041 479.575502 316.438119c1.301144-2.237967 11.189835-6.609809 12.95939-7.078221 1.71751-0.520457 2.290013-5.568895 1.71751-8.171182-0.520457-2.550241-8.847776-4.319797-8.847776-4.319797C481.136874 292.757306 500.133571 284.169759 502.683812 284.742262 505.182008 285.158628 516.319797 295.619822 516.319797 295.619822S505.702465 297.649606 504.141093 299.419161C502.683812 301.188717 503.93291 312.118323 503.672681 314.148107zM513.613418 325.806353C511.27136 326.587039 505.494282 311.54582 508.981347 311.54582c0 0 9.42028 0.260229 9.628463 2.602287C518.870038 316.438119 515.955476 325.025667 513.613418 325.806353zM508.773164 280.422465c-2.08183-0.312274-9.732554-3.070699-13.948259-0.624549C490.453062 282.452249 477.805947 291.768437 473.277967 295.099365 468.645896 298.430292 467.396798 286.199543 467.396798 286.199543c5.100483-8.587548 18.528285-15.40554 24.045133-15.925997 5.672986-0.572503 13.740076 0.520457 16.550546 2.029784C510.750902 273.76061 517.360712 271.991055 522.409149 276.154714 527.509632 280.058145 530.372147 289.270241 529.591461 291.6123 528.810775 293.850267 510.802948 280.630648 508.773164 280.422465z" fill="#ffffff" p-id="3642"></path></svg>